<svg id="jquery-icon" viewBox="0 0 20 20" 
	xmlns="http://www.w3.org/2000/svg">
	<path d="M18.9733 7.5425C17.0392 9.165 14.1425 8.90833 12.52 6.97416C10.8883 5.03083 11.145 2.125 13.0792 0.52083L13.5467 0.172497C11.9975 1.84083 11.8967 4.44416 13.4 6.25C14.8942 8.02833 17.4792 8.37667 19.395 7.13916L18.9733 7.5425ZM17.3417 11.2917C14.4358 13.7392 10.1 13.3633 7.66166 10.4483C5.21416 7.5425 5.59916 3.20666 8.505 0.749997L9.34833 0.16333C7.13 2.66583 7.02 6.48833 9.23833 9.12833C11.4567 11.75 15.2333 12.3275 18.0842 10.5767L17.3417 11.2917ZM16.3058 15.765C12.2358 19.1842 6.15833 18.6525 2.73916 14.5733C-0.670836 10.5033 -0.13917 4.41666 3.93083 1.01583L4.94833 0.291664C1.73083 3.775 1.52916 9.21083 4.67333 12.96C7.8175 16.7 13.2075 17.4517 17.2133 14.8942L16.3058 15.765Z" />
</svg>