<svg id="partykit-icon" version="1.1" xmlns="http://www.w3.org/2000/svg"
  xmlns:xlink="http://www.w3.org/1999/xlink"
  viewBox="0, 0, 400,268.64586488942746">
  <g id="svgg">
    <path id="path0"
      d="M141.667 78.088 C 141.529 78.115,140.742 78.221,139.917 78.324 C 136.873 78.702,135.738 78.874,135.250 79.029 C 134.975 79.117,134.375 79.258,133.917 79.343 C 133.458 79.428,132.671 79.617,132.167 79.763 C 131.662 79.909,131.025 80.091,130.750 80.166 C 130.475 80.242,129.987 80.398,129.667 80.512 C 129.346 80.627,128.558 80.905,127.917 81.130 C 127.275 81.355,126.361 81.718,125.885 81.936 C 125.410 82.155,124.946 82.333,124.856 82.333 C 124.765 82.333,124.591 82.431,124.470 82.549 C 124.349 82.668,123.313 83.258,122.167 83.860 C 119.874 85.064,117.137 86.784,115.572 88.004 C 115.015 88.437,114.414 88.838,114.236 88.895 C 114.058 88.951,113.726 89.192,113.498 89.430 C 113.270 89.668,112.671 90.245,112.167 90.712 C 108.870 93.769,106.176 96.922,103.898 100.391 C 103.045 101.688,102.214 102.899,102.050 103.082 C 101.785 103.378,100.756 105.204,100.356 106.089 C 99.106 108.853,98.115 111.361,97.660 112.917 C 97.580 113.192,97.390 113.829,97.239 114.333 C 97.089 114.837,96.910 115.550,96.842 115.917 C 96.774 116.283,96.636 116.883,96.535 117.250 C 95.023 122.718,95.050 133.181,96.592 139.083 C 96.711 139.542,96.897 140.292,97.004 140.750 C 97.227 141.701,97.448 142.434,98.184 144.660 C 98.706 146.238,98.849 146.626,99.273 147.609 C 99.398 147.897,99.500 148.183,99.500 148.244 C 99.500 148.304,99.694 148.781,99.930 149.302 C 100.167 149.823,100.423 150.400,100.501 150.583 C 100.936 151.617,103.072 155.955,103.249 156.167 C 103.365 156.304,103.558 156.698,103.680 157.042 C 103.801 157.385,103.953 157.667,104.017 157.667 C 104.081 157.667,104.217 157.873,104.318 158.125 C 104.419 158.377,104.729 158.958,105.006 159.417 C 105.284 159.875,105.559 160.362,105.618 160.500 C 105.677 160.637,105.776 160.787,105.838 160.833 C 105.900 160.879,106.198 161.367,106.500 161.917 C 106.802 162.467,107.103 162.954,107.168 163.000 C 107.234 163.046,107.418 163.339,107.578 163.651 C 107.896 164.272,107.927 164.316,108.650 165.167 C 108.923 165.487,109.944 166.872,110.920 168.244 C 111.895 169.615,113.306 171.511,114.055 172.456 C 114.804 173.402,115.529 174.392,115.667 174.657 C 115.804 174.922,116.198 175.442,116.542 175.812 C 116.885 176.182,117.167 176.509,117.167 176.538 C 117.167 176.607,118.732 178.364,119.625 179.297 C 120.015 179.704,120.333 180.064,120.333 180.096 C 120.333 180.276,126.238 185.978,127.576 187.091 C 128.122 187.545,128.695 188.029,128.851 188.167 C 129.698 188.917,129.976 189.146,130.583 189.592 C 130.950 189.861,131.290 190.135,131.338 190.199 C 131.387 190.264,132.062 190.770,132.838 191.322 C 133.615 191.875,134.341 192.403,134.451 192.497 C 134.562 192.590,134.725 192.667,134.812 192.667 C 134.900 192.667,134.997 192.723,135.028 192.792 C 135.090 192.932,136.590 194.000,136.724 194.000 C 136.771 194.000,137.246 194.287,137.780 194.638 C 138.313 194.989,138.862 195.328,139.000 195.393 C 139.137 195.457,139.850 195.840,140.583 196.243 C 142.699 197.408,145.036 198.500,145.411 198.500 C 145.541 198.500,145.687 198.565,145.736 198.644 C 145.785 198.724,146.596 199.032,147.538 199.330 C 148.479 199.627,149.550 199.968,149.917 200.086 C 150.283 200.205,150.996 200.380,151.500 200.475 C 152.004 200.570,153.000 200.765,153.713 200.907 C 154.618 201.088,155.977 201.166,158.213 201.165 C 161.549 201.164,161.976 201.104,165.083 200.195 C 165.725 200.007,166.745 199.711,167.350 199.538 C 168.419 199.231,171.694 197.593,171.806 197.308 C 171.836 197.230,171.934 197.167,172.023 197.167 C 172.216 197.167,174.726 195.338,174.806 195.139 C 174.836 195.063,174.937 195.000,175.030 195.000 C 175.257 195.000,179.333 190.908,179.333 190.680 C 179.333 190.581,179.393 190.500,179.466 190.500 C 179.539 190.500,179.894 190.106,180.255 189.625 C 180.617 189.144,180.953 188.713,181.003 188.667 C 181.167 188.517,182.408 186.785,182.750 186.230 C 182.933 185.933,183.537 184.953,184.092 184.053 C 184.647 183.153,185.723 181.142,186.484 179.583 C 187.246 178.025,187.926 176.635,187.996 176.495 C 188.067 176.354,188.180 175.986,188.248 175.677 C 188.316 175.367,188.632 174.470,188.950 173.682 C 189.814 171.545,190.721 168.830,191.585 165.795 C 192.009 164.303,192.421 162.933,192.500 162.750 C 192.735 162.202,193.116 160.816,193.324 159.750 C 193.431 159.200,193.626 158.225,193.756 157.583 C 194.297 154.922,194.493 153.852,194.653 152.667 C 194.747 151.979,194.937 150.592,195.076 149.583 C 196.308 140.647,196.310 129.073,195.081 121.667 C 194.952 120.888,194.761 119.725,194.656 119.083 C 194.493 118.080,194.103 116.468,193.467 114.167 C 193.378 113.846,193.265 113.358,193.216 113.083 C 193.167 112.808,193.028 112.471,192.909 112.333 C 192.790 112.196,192.375 111.233,191.987 110.194 C 191.076 107.750,189.154 103.834,187.856 101.773 C 187.294 100.880,186.833 100.075,186.833 99.984 C 186.833 99.894,186.759 99.729,186.667 99.618 C 186.576 99.507,186.148 98.929,185.717 98.333 C 183.874 95.786,180.994 92.614,178.833 90.754 C 178.329 90.320,177.692 89.763,177.417 89.516 C 177.142 89.269,176.560 88.815,176.125 88.506 C 175.690 88.196,175.333 87.881,175.333 87.805 C 175.333 87.729,175.257 87.667,175.164 87.667 C 175.071 87.667,174.548 87.348,174.001 86.958 C 173.455 86.569,172.696 86.063,172.314 85.833 C 171.932 85.604,171.536 85.342,171.435 85.250 C 171.046 84.900,165.338 82.000,165.037 82.000 C 164.940 82.000,164.648 81.892,164.389 81.760 C 163.714 81.417,162.853 81.070,162.083 80.831 C 161.717 80.717,161.229 80.549,161.000 80.457 C 160.771 80.365,160.358 80.231,160.083 80.160 C 159.808 80.088,159.171 79.919,158.667 79.785 C 158.162 79.651,157.637 79.542,157.500 79.543 C 157.362 79.545,156.500 79.390,155.583 79.200 C 151.545 78.362,143.522 77.721,141.667 78.088 "
      stroke="none" fill="#000000" fill-rule="evenodd"></path>
    <path id="path1"
      d="M219.250 0.688 C 215.944 1.754,214.271 5.061,215.391 8.314 C 215.656 9.082,216.660 10.666,216.882 10.666 C 216.955 10.667,217.179 10.821,217.381 11.009 C 217.828 11.425,218.826 11.896,219.833 12.167 C 220.246 12.277,220.883 12.461,221.250 12.575 C 222.785 13.053,223.626 13.306,224.333 13.502 C 224.746 13.616,225.383 13.805,225.750 13.921 C 226.117 14.037,226.867 14.262,227.417 14.423 C 227.967 14.583,228.604 14.769,228.833 14.837 C 229.063 14.905,229.700 15.092,230.250 15.252 C 230.800 15.413,231.512 15.640,231.833 15.758 C 232.154 15.875,232.792 16.063,233.250 16.174 C 233.708 16.286,234.721 16.583,235.500 16.833 C 236.279 17.084,237.292 17.384,237.750 17.500 C 238.463 17.681,240.152 18.199,242.095 18.833 C 242.377 18.925,242.770 19.000,242.970 19.000 C 243.394 19.000,243.423 19.243,243.107 20.122 C 242.846 20.845,242.463 22.085,242.167 23.167 C 241.973 23.871,241.730 24.682,241.242 26.250 C 241.128 26.617,240.942 27.254,240.829 27.667 C 240.716 28.079,240.527 28.717,240.409 29.083 C 240.211 29.697,239.711 31.388,239.053 33.667 C 238.908 34.171,238.693 34.846,238.576 35.167 C 238.458 35.487,238.271 36.125,238.159 36.583 C 238.047 37.042,237.752 38.054,237.503 38.833 C 237.255 39.612,236.970 40.550,236.872 40.917 C 236.773 41.283,236.452 42.371,236.158 43.333 C 235.864 44.296,235.560 45.308,235.482 45.583 C 235.290 46.263,234.333 49.483,234.171 50.000 C 234.098 50.229,233.908 50.867,233.748 51.417 C 233.588 51.967,233.364 52.717,233.250 53.083 C 233.136 53.450,232.949 54.087,232.833 54.500 C 232.718 54.913,232.530 55.550,232.416 55.917 C 232.303 56.283,232.078 57.033,231.918 57.583 C 231.758 58.133,231.570 58.771,231.500 59.000 C 231.430 59.229,231.240 59.867,231.077 60.417 C 230.915 60.967,230.689 61.717,230.575 62.083 C 230.461 62.450,230.284 63.050,230.182 63.417 C 230.080 63.783,229.770 64.833,229.492 65.750 C 229.214 66.667,228.904 67.717,228.805 68.083 C 228.705 68.450,228.523 69.050,228.401 69.417 C 228.279 69.783,227.985 70.758,227.748 71.583 C 227.511 72.408,227.098 73.796,226.830 74.667 C 226.563 75.537,226.234 76.662,226.099 77.167 C 225.965 77.671,225.777 78.308,225.682 78.583 C 225.586 78.858,225.312 79.758,225.072 80.583 C 224.832 81.408,224.532 82.421,224.406 82.833 C 224.280 83.246,223.980 84.258,223.740 85.083 C 223.499 85.908,223.199 86.921,223.073 87.333 C 222.947 87.746,222.646 88.758,222.404 89.583 C 222.162 90.408,221.868 91.383,221.749 91.750 C 221.631 92.117,221.443 92.754,221.331 93.167 C 221.141 93.869,220.907 94.650,220.409 96.250 C 220.295 96.617,220.110 97.254,219.998 97.667 C 219.699 98.769,219.320 100.003,219.076 100.667 C 218.959 100.987,218.774 101.625,218.665 102.083 C 218.438 103.042,218.033 104.394,217.792 105.000 C 217.701 105.229,217.489 105.942,217.320 106.583 C 217.152 107.225,216.863 108.275,216.679 108.917 C 215.107 114.378,220.084 118.555,225.282 116.138 C 226.760 115.451,227.730 114.092,228.414 111.750 C 228.575 111.200,228.763 110.563,228.833 110.333 C 228.903 110.104,229.092 109.467,229.252 108.917 C 229.412 108.367,229.636 107.617,229.750 107.250 C 229.864 106.883,230.051 106.246,230.167 105.833 C 230.282 105.421,230.470 104.783,230.584 104.417 C 230.959 103.213,231.291 102.096,231.500 101.333 C 231.693 100.629,231.936 99.818,232.425 98.250 C 232.539 97.883,232.723 97.246,232.833 96.833 C 232.944 96.421,233.131 95.783,233.249 95.417 C 233.368 95.050,233.662 94.075,233.903 93.250 C 234.144 92.425,234.462 91.337,234.609 90.833 C 234.757 90.329,234.972 89.617,235.088 89.250 C 235.204 88.883,235.389 88.246,235.500 87.833 C 235.611 87.421,235.794 86.783,235.908 86.417 C 236.022 86.050,236.248 85.300,236.411 84.750 C 236.573 84.200,236.763 83.563,236.833 83.333 C 236.903 83.104,237.092 82.467,237.252 81.917 C 237.412 81.367,237.636 80.617,237.750 80.250 C 237.864 79.883,238.051 79.246,238.167 78.833 C 238.282 78.421,238.470 77.783,238.584 77.417 C 238.972 76.172,239.294 75.086,239.498 74.333 C 239.610 73.921,239.796 73.283,239.912 72.917 C 240.028 72.550,240.243 71.837,240.391 71.333 C 240.538 70.829,240.856 69.742,241.097 68.917 C 241.338 68.092,241.632 67.117,241.751 66.750 C 241.869 66.383,242.056 65.746,242.167 65.333 C 242.277 64.921,242.465 64.283,242.583 63.917 C 242.786 63.287,243.351 61.374,243.938 59.333 C 244.083 58.829,244.297 58.117,244.413 57.750 C 244.529 57.383,244.718 56.746,244.833 56.333 C 244.949 55.921,245.136 55.283,245.250 54.917 C 245.364 54.550,245.588 53.800,245.748 53.250 C 245.908 52.700,246.097 52.063,246.167 51.833 C 246.237 51.604,246.425 50.967,246.585 50.417 C 246.745 49.867,246.969 49.117,247.083 48.750 C 247.197 48.383,247.385 47.746,247.500 47.333 C 247.615 46.921,247.805 46.283,247.921 45.917 C 248.037 45.550,248.250 44.837,248.395 44.333 C 248.982 42.292,249.547 40.380,249.751 39.750 C 249.869 39.383,250.056 38.746,250.167 38.333 C 250.277 37.921,250.465 37.283,250.583 36.917 C 250.701 36.550,250.995 35.575,251.236 34.750 C 251.477 33.925,251.795 32.837,251.943 32.333 C 252.090 31.829,252.305 31.117,252.421 30.750 C 252.537 30.383,252.724 29.746,252.836 29.333 C 253.040 28.581,253.362 27.495,253.749 26.250 C 253.863 25.883,254.051 25.246,254.167 24.833 C 254.769 22.679,254.902 22.505,255.700 22.816 C 255.911 22.898,256.533 23.095,257.083 23.254 C 257.633 23.413,258.383 23.636,258.750 23.750 C 259.117 23.864,259.754 24.051,260.167 24.167 C 260.579 24.282,261.217 24.470,261.583 24.584 C 262.214 24.779,263.535 25.172,264.833 25.548 C 265.154 25.641,265.717 25.811,266.083 25.925 C 266.450 26.039,267.087 26.223,267.500 26.333 C 267.912 26.444,268.550 26.631,268.917 26.749 C 269.545 26.952,271.438 27.512,273.500 28.105 C 274.004 28.250,274.604 28.445,274.833 28.538 C 275.063 28.631,275.775 28.845,276.417 29.013 C 277.058 29.181,278.108 29.470,278.750 29.655 C 282.879 30.843,286.652 28.223,286.652 24.167 C 286.652 23.118,285.952 20.833,285.630 20.833 C 285.559 20.833,285.500 20.721,285.500 20.583 C 285.500 20.446,285.444 20.331,285.375 20.329 C 285.306 20.326,284.933 20.034,284.545 19.678 C 283.854 19.045,282.791 18.574,280.583 17.922 C 280.033 17.760,279.396 17.572,279.167 17.504 C 278.938 17.436,278.300 17.247,277.750 17.085 C 277.200 16.922,276.450 16.695,276.083 16.579 C 275.717 16.463,275.079 16.277,274.667 16.167 C 274.254 16.056,273.617 15.872,273.250 15.758 C 271.650 15.260,270.869 15.026,270.167 14.836 C 269.754 14.724,269.117 14.535,268.750 14.417 C 268.383 14.299,267.408 14.004,266.583 13.762 C 265.758 13.521,264.746 13.220,264.333 13.094 C 263.921 12.968,262.908 12.668,262.083 12.427 C 261.258 12.186,260.246 11.888,259.833 11.763 C 257.423 11.037,255.978 10.606,255.167 10.372 C 254.662 10.227,253.725 9.941,253.083 9.736 C 252.442 9.531,251.167 9.161,250.250 8.914 C 249.333 8.667,248.396 8.390,248.167 8.298 C 247.705 8.113,246.681 7.813,244.917 7.348 C 244.275 7.179,243.563 6.964,243.333 6.871 C 243.104 6.778,242.504 6.584,242.000 6.439 C 241.496 6.295,240.446 5.988,239.667 5.756 C 238.887 5.525,237.875 5.225,237.417 5.089 C 236.958 4.953,235.908 4.644,235.083 4.403 C 234.258 4.162,233.283 3.868,232.917 3.749 C 232.550 3.631,231.912 3.444,231.500 3.333 C 231.088 3.223,230.450 3.035,230.083 2.917 C 229.717 2.799,228.742 2.505,227.917 2.264 C 225.340 1.510,224.788 1.344,223.437 0.916 C 222.045 0.475,220.219 0.375,219.250 0.688 M153.915 19.397 C 149.839 20.534,148.668 24.322,150.947 29.000 C 151.416 29.962,152.189 31.575,152.665 32.583 C 153.141 33.592,153.945 35.279,154.452 36.333 C 154.958 37.387,155.769 39.075,156.253 40.083 C 157.873 43.456,159.118 46.069,159.905 47.750 C 160.334 48.667,160.756 49.529,160.843 49.667 C 160.930 49.804,161.075 50.088,161.165 50.298 C 161.457 50.974,163.684 55.644,165.602 59.602 C 166.635 61.733,166.618 61.667,166.125 61.667 C 165.663 61.667,163.482 62.115,162.964 62.317 C 162.755 62.398,162.133 62.600,161.583 62.767 C 161.033 62.933,160.512 63.128,160.425 63.201 C 160.338 63.274,160.174 63.333,160.060 63.333 C 159.345 63.333,155.663 65.373,153.528 66.952 C 150.101 69.487,146.313 74.531,145.576 77.542 L 145.464 78.000 146.774 77.997 C 148.594 77.993,152.474 78.457,155.250 79.011 L 157.583 79.477 158.000 78.947 C 161.559 74.417,167.479 72.266,174.385 72.995 C 175.227 73.084,176.929 73.237,178.167 73.335 C 179.404 73.433,181.504 73.622,182.833 73.753 C 184.162 73.885,186.412 74.109,187.833 74.250 C 189.254 74.391,190.754 74.523,191.167 74.545 L 191.917 74.583 191.871 76.000 C 191.847 76.779,191.719 78.467,191.587 79.750 C 191.175 83.766,190.854 87.166,190.665 89.500 C 190.565 90.737,190.377 92.763,190.248 94.000 C 190.119 95.237,189.974 96.830,189.926 97.540 C 189.877 98.249,189.789 99.137,189.728 99.514 L 189.619 100.199 188.238 100.141 C 187.022 100.090,186.883 100.113,187.074 100.333 C 187.819 101.192,191.657 108.384,191.670 108.944 C 191.692 109.934,193.005 112.259,193.601 112.365 C 196.511 112.883,199.044 111.719,200.199 109.333 C 200.666 108.368,200.954 106.447,201.334 101.750 C 201.510 99.568,201.812 96.390,202.251 92.083 C 202.381 90.800,202.568 88.737,202.666 87.500 C 202.764 86.263,202.952 84.162,203.083 82.833 C 203.577 77.852,203.831 75.192,204.000 73.250 C 204.194 71.026,204.551 67.209,204.919 63.417 C 205.053 62.042,205.240 60.017,205.335 58.917 C 205.430 57.817,205.616 55.792,205.749 54.417 C 206.343 48.282,206.499 46.621,206.666 44.667 C 206.763 43.521,206.950 41.496,207.081 40.167 C 207.212 38.837,207.437 36.512,207.580 35.000 C 207.724 33.487,207.910 31.537,207.995 30.667 C 208.420 26.273,205.993 23.381,202.006 23.531 C 200.453 23.589,198.500 24.237,198.500 24.694 C 198.500 24.771,198.424 24.833,198.331 24.833 C 198.119 24.833,197.178 25.855,197.172 26.092 C 197.169 26.188,197.078 26.356,196.969 26.464 C 196.642 26.792,196.172 28.528,196.170 29.417 C 196.169 29.875,196.095 31.000,196.005 31.917 C 195.915 32.833,195.724 34.821,195.581 36.333 C 195.437 37.846,195.213 40.171,195.083 41.500 C 194.953 42.829,194.767 44.892,194.669 46.083 C 194.571 47.275,194.378 49.413,194.240 50.833 C 194.102 52.254,193.881 54.542,193.748 55.917 C 193.616 57.292,193.431 59.204,193.336 60.167 C 193.242 61.129,193.165 62.160,193.166 62.458 C 193.167 63.109,193.272 63.098,190.167 62.759 C 186.755 62.387,182.919 62.017,181.288 61.904 C 179.777 61.799,179.333 61.596,179.333 61.009 C 179.333 60.843,179.221 60.614,179.083 60.500 C 178.946 60.386,178.833 60.224,178.833 60.141 C 178.833 60.058,178.412 59.111,177.897 58.037 C 177.018 56.202,176.660 55.448,174.730 51.375 C 174.306 50.481,173.476 48.737,172.883 47.500 C 172.291 46.262,171.521 44.650,171.172 43.917 C 170.823 43.183,170.050 41.571,169.455 40.333 C 168.859 39.096,168.020 37.333,167.590 36.417 C 167.160 35.500,166.556 34.225,166.249 33.583 C 165.941 32.942,165.115 31.217,164.412 29.750 C 163.191 27.203,162.233 25.201,161.103 22.833 C 159.742 19.982,156.822 18.586,153.915 19.397 M38.333 28.597 C 34.958 29.170,31.741 30.013,30.058 30.765 C 29.769 30.894,29.459 31.000,29.369 31.000 C 29.279 31.000,28.990 31.112,28.727 31.249 C 28.465 31.386,28.123 31.498,27.968 31.499 C 27.813 31.500,27.640 31.575,27.583 31.667 C 27.527 31.758,27.312 31.833,27.105 31.833 C 26.899 31.833,26.585 31.943,26.407 32.078 C 26.229 32.213,25.929 32.325,25.740 32.328 C 25.551 32.331,25.251 32.443,25.074 32.578 C 24.896 32.713,24.645 32.825,24.517 32.828 C 24.389 32.831,22.469 33.508,20.250 34.333 C 18.031 35.158,16.111 35.836,15.983 35.839 C 15.855 35.842,15.604 35.954,15.426 36.089 C 15.249 36.223,14.949 36.336,14.760 36.339 C 14.571 36.342,14.271 36.454,14.093 36.589 C 13.915 36.723,13.601 36.833,13.395 36.833 C 13.188 36.833,12.973 36.908,12.917 37.000 C 12.860 37.092,12.645 37.167,12.439 37.167 C 12.232 37.167,11.918 37.277,11.740 37.411 C 11.562 37.546,11.262 37.658,11.074 37.661 C 10.885 37.664,10.585 37.777,10.407 37.911 C 10.229 38.046,9.980 38.158,9.853 38.161 C 9.569 38.168,4.862 39.907,3.885 40.366 C 1.345 41.560,0.166 44.865,1.249 47.750 C 1.490 48.392,1.828 49.329,2.000 49.833 C 2.171 50.337,2.472 51.163,2.667 51.667 C 2.862 52.171,3.162 52.996,3.333 53.500 C 3.505 54.004,3.805 54.829,4.000 55.333 C 4.195 55.837,4.495 56.663,4.667 57.167 C 4.838 57.671,5.137 58.496,5.330 59.000 C 5.679 59.911,6.034 60.876,7.077 63.750 C 7.377 64.575,7.707 65.461,7.811 65.719 C 7.915 65.977,8.000 66.250,8.000 66.325 C 8.000 66.400,8.112 66.677,8.249 66.939 C 8.386 67.202,8.498 67.543,8.499 67.698 C 8.500 67.854,8.575 68.027,8.667 68.083 C 8.758 68.140,8.833 68.355,8.833 68.561 C 8.833 68.768,8.943 69.082,9.078 69.260 C 9.213 69.438,9.325 69.722,9.328 69.891 C 9.331 70.060,9.436 70.398,9.562 70.641 C 9.688 70.884,9.880 71.383,9.989 71.750 C 10.098 72.117,10.295 72.698,10.427 73.042 C 10.559 73.385,10.775 73.948,10.907 74.292 C 11.903 76.880,14.168 83.163,14.172 83.351 C 14.175 83.479,14.287 83.729,14.422 83.907 C 14.557 84.085,14.669 84.385,14.672 84.574 C 14.675 84.762,14.787 85.062,14.922 85.240 C 15.057 85.418,15.167 85.732,15.167 85.939 C 15.167 86.145,15.242 86.360,15.333 86.417 C 15.425 86.473,15.500 86.663,15.500 86.838 C 15.500 87.147,15.794 87.935,16.266 88.889 C 16.395 89.148,16.500 89.440,16.500 89.538 C 16.500 89.635,17.175 91.531,18.000 93.750 C 18.825 95.969,19.502 97.889,19.505 98.017 C 19.508 98.145,19.621 98.396,19.755 98.574 C 19.890 98.751,20.002 99.051,20.005 99.240 C 20.008 99.429,20.121 99.729,20.255 99.907 C 20.390 100.085,20.500 100.399,20.500 100.605 C 20.500 100.812,20.575 101.027,20.667 101.083 C 20.758 101.140,20.834 101.313,20.834 101.468 C 20.835 101.623,20.947 101.965,21.084 102.227 C 21.221 102.490,21.333 102.766,21.333 102.842 C 21.333 102.917,21.418 103.189,21.522 103.447 C 21.626 103.706,21.956 104.592,22.256 105.417 C 23.296 108.281,23.654 109.255,24.003 110.167 C 24.196 110.671,24.469 111.458,24.610 111.917 C 24.751 112.375,24.971 112.949,25.100 113.192 C 25.228 113.436,25.336 113.773,25.339 113.942 C 25.342 114.112,25.454 114.396,25.589 114.574 C 25.723 114.751,25.833 115.066,25.833 115.272 C 25.833 115.478,25.908 115.693,26.000 115.750 C 26.092 115.807,26.167 115.956,26.167 116.082 C 26.167 116.208,26.252 116.523,26.356 116.781 C 26.459 117.039,26.790 117.925,27.089 118.750 C 28.133 121.624,28.488 122.589,28.837 123.500 C 29.030 124.004,29.328 124.829,29.500 125.333 C 29.672 125.837,29.975 126.662,30.175 127.167 C 30.374 127.671,30.575 128.291,30.621 128.544 C 30.667 128.797,30.771 129.045,30.853 129.095 C 30.934 129.145,31.000 129.302,31.000 129.443 C 31.000 129.724,31.294 130.444,31.956 131.789 C 33.620 135.166,38.802 135.760,41.458 132.877 C 41.848 132.455,42.167 132.009,42.167 131.888 C 42.167 131.766,42.232 131.667,42.311 131.667 C 43.011 131.667,43.143 128.439,42.518 126.638 C 42.253 125.875,41.869 124.763,41.664 124.167 C 41.459 123.571,41.188 122.884,41.062 122.641 C 40.936 122.398,40.831 122.060,40.828 121.891 C 40.825 121.722,40.713 121.438,40.578 121.260 C 40.443 121.082,40.333 120.768,40.333 120.561 C 40.333 120.355,40.258 120.140,40.167 120.083 C 40.075 120.027,40.000 119.812,40.000 119.605 C 40.000 119.399,39.890 119.085,39.755 118.907 C 39.621 118.729,39.508 118.429,39.505 118.240 C 39.502 118.051,39.390 117.751,39.255 117.574 C 39.121 117.396,39.008 117.145,39.005 117.017 C 39.002 116.889,38.325 114.969,37.500 112.750 C 36.675 110.531,35.998 108.611,35.995 108.483 C 35.992 108.355,35.879 108.104,35.745 107.926 C 35.610 107.749,35.498 107.449,35.495 107.260 C 35.492 107.071,35.379 106.771,35.245 106.593 C 35.110 106.415,35.000 106.101,35.000 105.895 C 35.000 105.688,34.925 105.473,34.833 105.417 C 34.742 105.360,34.666 105.187,34.666 105.032 C 34.665 104.877,34.553 104.535,34.416 104.273 C 34.279 104.010,34.167 103.668,34.167 103.513 C 34.167 103.357,34.057 103.085,33.922 102.907 C 33.787 102.729,33.675 102.467,33.672 102.324 C 33.669 102.181,33.376 101.318,33.020 100.406 C 32.665 99.494,32.256 98.411,32.112 97.999 C 31.968 97.587,31.692 96.837,31.498 96.333 C 31.304 95.829,31.031 95.042,30.890 94.583 C 30.749 94.125,30.529 93.551,30.400 93.308 C 30.272 93.064,30.164 92.727,30.161 92.558 C 30.158 92.388,30.046 92.104,29.911 91.926 C 29.777 91.749,29.667 91.434,29.667 91.228 C 29.667 91.022,29.592 90.807,29.500 90.750 C 29.408 90.693,29.333 90.520,29.332 90.365 C 29.332 90.210,29.226 89.882,29.098 89.636 L 28.864 89.188 29.890 88.856 C 30.455 88.673,31.329 88.363,31.833 88.168 C 32.337 87.972,33.162 87.672,33.667 87.500 C 34.171 87.328,34.996 87.028,35.500 86.833 C 36.004 86.638,36.829 86.338,37.333 86.167 C 37.837 85.995,38.662 85.695,39.167 85.500 C 39.671 85.305,40.496 85.005,41.000 84.833 C 41.504 84.662,42.329 84.362,42.833 84.167 C 43.337 83.972,44.163 83.672,44.667 83.500 C 45.171 83.328,45.996 83.028,46.500 82.833 C 47.004 82.638,47.829 82.337,48.333 82.164 C 49.344 81.816,50.155 81.507,50.917 81.178 C 51.880 80.763,55.917 78.771,56.000 78.670 C 56.046 78.614,56.608 78.241,57.250 77.840 C 59.039 76.723,60.574 75.454,62.583 73.430 C 64.481 71.519,64.808 71.152,65.494 70.167 C 65.718 69.846,65.951 69.546,66.013 69.500 C 66.190 69.368,68.218 65.985,68.560 65.250 C 68.731 64.883,68.939 64.449,69.024 64.285 C 69.187 63.968,69.946 61.804,70.380 60.417 C 71.306 57.456,71.487 52.605,70.808 48.917 C 70.377 46.575,68.201 41.201,67.333 40.333 C 67.287 40.287,66.952 39.807,66.587 39.266 C 65.412 37.523,61.616 33.869,60.375 33.289 C 60.169 33.192,60.000 33.050,60.000 32.973 C 60.000 32.896,59.926 32.833,59.836 32.833 C 59.746 32.833,59.201 32.552,58.625 32.208 C 58.049 31.865,57.279 31.444,56.914 31.273 C 56.549 31.103,56.106 30.888,55.930 30.796 C 55.432 30.536,53.482 29.818,52.833 29.656 C 48.141 28.488,47.887 28.453,43.667 28.403 C 40.829 28.369,39.360 28.422,38.333 28.597 M45.981 40.179 C 50.011 40.832,53.077 42.245,55.625 44.621 C 56.015 44.985,56.333 45.327,56.333 45.381 C 56.333 45.435,56.558 45.726,56.833 46.027 C 57.108 46.328,57.333 46.670,57.333 46.787 C 57.333 46.904,57.400 47.000,57.482 47.000 C 57.564 47.000,57.678 47.188,57.735 47.417 C 57.793 47.646,57.913 47.833,58.003 47.833 C 58.093 47.833,58.167 47.979,58.167 48.157 C 58.167 48.335,58.239 48.525,58.327 48.580 C 58.513 48.695,58.734 49.389,59.175 51.250 C 59.686 53.405,59.589 55.132,58.799 57.917 C 58.426 59.231,56.850 62.298,56.458 62.472 C 56.390 62.503,56.333 62.596,56.333 62.679 C 56.333 63.089,52.129 67.333,51.724 67.333 C 51.679 67.333,51.544 67.427,51.424 67.542 C 51.066 67.883,49.156 69.026,48.083 69.542 C 47.533 69.806,46.944 70.098,46.774 70.191 C 46.603 70.283,46.041 70.498,45.524 70.669 C 45.006 70.839,44.171 71.138,43.667 71.333 C 43.163 71.528,42.337 71.828,41.833 72.000 C 41.329 72.172,40.504 72.472,40.000 72.667 C 39.496 72.862,38.671 73.162,38.167 73.333 C 37.662 73.505,36.837 73.806,36.333 74.002 C 35.829 74.198,35.229 74.420,35.000 74.496 C 34.771 74.572,33.946 74.871,33.167 75.160 C 32.387 75.449,31.337 75.826,30.833 75.999 C 30.329 76.171,29.504 76.474,29.000 76.673 C 28.496 76.871,27.913 77.072,27.706 77.120 C 27.498 77.168,27.288 77.273,27.238 77.353 C 27.188 77.434,26.981 77.500,26.777 77.500 C 26.574 77.500,26.260 77.602,26.079 77.726 C 25.540 78.096,24.834 78.167,24.828 77.852 C 24.825 77.704,24.713 77.438,24.578 77.260 C 24.443 77.082,24.333 76.768,24.333 76.561 C 24.333 76.355,24.258 76.140,24.167 76.083 C 24.075 76.027,24.000 75.877,24.000 75.751 C 24.000 75.625,23.915 75.311,23.811 75.053 C 23.707 74.794,23.377 73.908,23.077 73.083 C 22.034 70.209,21.679 69.244,21.330 68.333 C 21.137 67.829,20.838 67.004,20.667 66.500 C 20.495 65.996,20.195 65.171,20.000 64.667 C 19.805 64.162,19.505 63.337,19.333 62.833 C 19.162 62.329,18.862 61.504,18.667 61.000 C 18.472 60.496,18.172 59.671,18.000 59.167 C 17.828 58.663,17.528 57.837,17.333 57.333 C 17.138 56.829,16.838 56.004,16.667 55.500 C 16.495 54.996,16.195 54.171,16.000 53.667 C 15.805 53.163,15.505 52.337,15.333 51.833 C 15.162 51.329,14.867 50.507,14.679 50.007 C 14.280 48.947,14.281 48.945,15.586 48.516 C 16.135 48.336,16.996 48.028,17.500 47.833 C 18.004 47.638,18.829 47.338,19.333 47.167 C 19.837 46.995,20.662 46.695,21.167 46.500 C 21.671 46.305,22.496 46.005,23.000 45.833 C 23.504 45.662,24.329 45.362,24.833 45.167 C 25.337 44.972,26.162 44.669,26.667 44.495 C 28.326 43.921,29.902 43.355,30.833 42.997 C 31.337 42.804,32.162 42.505,32.667 42.333 C 33.171 42.162,33.996 41.860,34.500 41.663 C 35.512 41.267,36.219 41.056,37.303 40.826 C 37.699 40.741,38.099 40.625,38.193 40.567 C 38.888 40.137,44.117 39.877,45.981 40.179 M98.000 43.023 C 92.932 43.536,91.002 44.893,90.330 48.417 C 90.152 49.349,89.958 50.264,89.411 52.750 C 89.289 53.300,89.103 54.200,88.997 54.750 C 88.891 55.300,88.704 56.200,88.583 56.750 C 88.148 58.727,87.857 60.100,87.667 61.083 C 87.468 62.110,87.140 63.656,86.748 65.417 C 86.625 65.967,86.436 66.904,86.328 67.500 C 86.220 68.096,86.035 68.996,85.916 69.500 C 85.798 70.004,85.575 71.017,85.421 71.750 C 85.267 72.483,85.072 73.355,84.987 73.686 C 84.903 74.017,84.833 74.461,84.833 74.671 C 84.833 74.882,84.727 75.436,84.597 75.902 C 84.352 76.783,84.006 78.357,83.587 80.500 C 83.453 81.188,83.188 82.462,82.998 83.333 C 82.808 84.204,82.535 85.554,82.393 86.333 C 82.250 87.112,82.028 88.102,81.900 88.531 C 81.772 88.961,81.667 89.468,81.667 89.659 C 81.667 89.849,81.559 90.435,81.427 90.961 C 81.296 91.487,81.103 92.367,80.999 92.917 C 80.895 93.467,80.734 94.209,80.641 94.565 C 80.548 94.922,80.411 95.560,80.336 95.982 C 80.181 96.856,79.293 101.113,78.750 103.583 C 78.629 104.133,78.443 105.033,78.336 105.583 C 78.230 106.133,78.041 107.033,77.915 107.583 C 77.790 108.133,77.652 108.771,77.609 109.000 C 77.566 109.229,77.402 110.017,77.245 110.750 C 77.088 111.483,76.900 112.421,76.828 112.833 C 76.755 113.246,76.620 113.883,76.527 114.250 C 75.645 117.736,75.610 119.614,76.398 121.188 C 77.787 123.963,80.925 124.983,84.250 123.740 C 85.919 123.116,87.163 121.093,87.678 118.167 C 87.783 117.571,87.965 116.671,88.084 116.167 C 88.202 115.662,88.425 114.650,88.579 113.917 C 88.733 113.183,88.928 112.312,89.013 111.981 C 89.097 111.649,89.167 111.206,89.167 110.995 C 89.167 110.785,89.272 110.231,89.401 109.765 C 89.744 108.525,90.170 106.622,90.169 106.333 C 90.166 104.896,90.219 104.870,94.292 104.328 C 96.057 104.093,98.607 103.706,100.457 103.393 L 101.997 103.132 102.616 102.108 C 103.214 101.118,104.762 98.757,105.037 98.417 C 105.111 98.325,105.840 97.419,106.657 96.402 C 107.473 95.386,109.173 93.530,110.435 92.277 C 112.949 89.781,112.935 89.863,110.782 90.172 C 109.661 90.333,108.850 90.454,104.708 91.078 C 103.815 91.213,102.483 91.403,101.750 91.500 C 100.144 91.714,97.817 92.061,95.657 92.410 C 92.783 92.874,92.914 92.970,93.412 90.750 C 93.760 89.199,94.145 87.371,94.413 86.000 C 94.547 85.313,94.818 84.037,95.014 83.167 C 95.211 82.296,95.430 81.246,95.502 80.833 C 95.843 78.880,95.990 78.151,96.069 78.024 C 96.115 77.948,96.224 77.480,96.310 76.985 C 96.480 76.003,97.050 73.260,97.935 69.167 C 98.432 66.866,98.873 64.714,99.018 63.883 C 99.101 63.406,99.243 62.820,99.334 62.581 C 99.425 62.341,99.501 61.944,99.502 61.697 C 99.504 61.177,99.713 61.503,101.245 64.417 C 101.727 65.333,102.368 66.533,102.670 67.083 C 102.972 67.633,103.514 68.646,103.875 69.333 C 104.605 70.724,105.137 71.708,106.085 73.426 C 106.436 74.062,107.038 75.183,107.422 75.917 C 107.806 76.650,108.406 77.775,108.756 78.417 C 109.339 79.488,109.676 80.115,111.313 83.192 C 111.623 83.774,112.083 84.625,112.336 85.083 C 113.461 87.127,113.902 87.942,114.070 88.290 C 114.311 88.791,114.345 88.782,115.499 87.904 C 116.632 87.042,119.453 85.167,119.617 85.167 C 119.676 85.167,119.842 85.064,119.987 84.939 C 120.132 84.814,121.161 84.236,122.275 83.656 L 124.299 82.600 123.423 80.925 C 122.940 80.004,122.299 78.800,121.997 78.250 C 121.695 77.700,121.153 76.688,120.792 76.000 C 120.061 74.610,119.530 73.626,118.582 71.908 C 118.230 71.271,117.629 70.150,117.245 69.417 C 116.861 68.683,116.323 67.671,116.049 67.167 C 115.775 66.662,115.229 65.650,114.836 64.917 C 113.213 61.891,112.181 59.978,111.328 58.417 C 111.027 57.867,110.485 56.854,110.124 56.167 C 109.244 54.494,108.562 53.218,107.587 51.417 C 107.140 50.592,106.595 49.579,106.376 49.167 C 104.411 45.472,104.317 45.318,103.583 44.574 C 102.257 43.228,100.578 42.762,98.000 43.023 M273.667 52.311 C 271.743 52.598,270.109 54.122,269.352 56.333 C 269.143 56.945,269.112 57.541,268.833 66.417 C 268.668 71.645,268.468 77.170,267.917 91.667 C 267.783 95.196,267.633 99.471,267.582 101.167 C 267.497 104.036,267.463 104.302,267.081 105.000 C 266.855 105.412,266.366 106.350,265.994 107.083 C 264.604 109.824,264.024 110.921,263.883 111.083 C 263.803 111.175,263.630 111.513,263.499 111.833 C 263.367 112.154,263.094 112.717,262.892 113.083 C 262.689 113.450,262.230 114.313,261.872 115.000 C 261.513 115.688,260.747 117.150,260.168 118.250 C 256.898 124.467,256.755 124.795,256.690 126.226 C 256.506 130.247,259.876 133.130,263.701 132.224 C 266.288 131.612,266.783 131.065,269.404 125.917 C 269.778 125.183,270.121 124.546,270.167 124.500 C 270.212 124.454,270.611 123.704,271.051 122.833 C 271.492 121.962,272.482 120.050,273.251 118.583 C 274.020 117.117,274.917 115.392,275.245 114.750 C 277.795 109.752,277.792 109.756,279.417 108.577 C 280.242 107.978,280.942 107.416,280.972 107.327 C 281.003 107.239,281.134 107.167,281.264 107.167 C 281.394 107.167,281.500 107.108,281.500 107.036 C 281.500 106.964,281.722 106.774,281.994 106.613 C 282.266 106.453,282.584 106.228,282.702 106.113 C 282.820 105.998,283.685 105.348,284.625 104.668 C 285.565 103.989,286.333 103.373,286.333 103.300 C 286.333 103.227,286.440 103.167,286.569 103.167 C 286.699 103.167,286.831 103.107,286.861 103.034 C 286.892 102.961,287.573 102.419,288.375 101.830 C 289.177 101.240,289.833 100.700,289.833 100.629 C 289.833 100.558,289.946 100.500,290.083 100.500 C 290.221 100.500,290.333 100.425,290.333 100.333 C 290.333 100.242,290.407 100.167,290.498 100.167 C 290.653 100.167,291.089 99.850,291.590 99.375 C 291.711 99.260,291.884 99.167,291.974 99.167 C 292.065 99.167,292.164 99.104,292.194 99.028 C 292.225 98.951,293.000 98.339,293.917 97.667 C 294.833 96.994,295.608 96.382,295.639 96.306 C 295.669 96.229,295.801 96.167,295.931 96.167 C 296.060 96.167,296.167 96.108,296.167 96.036 C 296.167 95.964,296.373 95.783,296.625 95.634 C 296.877 95.485,297.271 95.199,297.500 95.000 C 297.729 94.800,298.610 94.140,299.458 93.533 C 300.306 92.925,301.000 92.370,301.000 92.298 C 301.000 92.226,301.112 92.167,301.250 92.167 C 301.387 92.167,301.500 92.108,301.500 92.036 C 301.500 91.964,301.706 91.783,301.958 91.634 C 302.210 91.485,302.604 91.199,302.833 91.000 C 303.063 90.800,303.944 90.140,304.792 89.533 C 305.640 88.925,306.333 88.370,306.333 88.298 C 306.333 88.226,306.446 88.167,306.583 88.167 C 306.721 88.167,306.833 88.108,306.833 88.036 C 306.833 87.964,307.056 87.774,307.327 87.613 C 307.599 87.453,307.918 87.226,308.036 87.110 C 308.154 86.994,308.962 86.384,309.833 85.755 C 310.704 85.126,311.492 84.526,311.583 84.422 C 311.675 84.318,312.125 83.977,312.583 83.665 C 313.042 83.353,313.567 82.958,313.750 82.788 C 313.933 82.617,314.327 82.327,314.625 82.142 C 314.923 81.957,315.167 81.737,315.167 81.653 C 315.167 81.569,315.245 81.500,315.341 81.500 C 316.032 81.500,317.229 79.258,317.435 77.578 C 317.639 75.911,316.250 72.667,315.333 72.667 C 315.242 72.667,315.167 72.594,315.167 72.505 C 315.167 72.095,313.249 71.437,311.854 71.367 C 310.513 71.300,308.167 71.899,308.167 72.309 C 308.167 72.371,307.867 72.607,307.500 72.833 C 307.133 73.060,306.833 73.303,306.833 73.373 C 306.833 73.443,306.721 73.500,306.583 73.500 C 306.446 73.500,306.333 73.560,306.333 73.633 C 306.333 73.706,305.565 74.322,304.625 75.001 C 303.685 75.681,302.820 76.331,302.702 76.446 C 302.584 76.561,302.266 76.786,301.994 76.947 C 301.722 77.107,301.500 77.297,301.500 77.369 C 301.500 77.441,301.387 77.500,301.250 77.500 C 301.112 77.500,301.000 77.560,301.000 77.633 C 301.000 77.706,300.231 78.322,299.292 79.001 C 298.352 79.681,297.487 80.331,297.369 80.446 C 297.251 80.561,296.932 80.786,296.661 80.947 C 296.389 81.107,296.167 81.297,296.167 81.369 C 296.167 81.441,296.054 81.500,295.917 81.500 C 295.779 81.500,295.667 81.559,295.667 81.631 C 295.667 81.703,294.973 82.259,294.125 82.866 C 293.277 83.473,292.396 84.133,292.167 84.333 C 291.938 84.533,291.544 84.818,291.292 84.967 C 291.040 85.116,290.833 85.297,290.833 85.369 C 290.833 85.441,290.721 85.500,290.583 85.500 C 290.446 85.500,290.333 85.559,290.333 85.631 C 290.333 85.703,289.640 86.259,288.792 86.866 C 287.944 87.473,287.063 88.133,286.833 88.333 C 286.604 88.533,286.210 88.818,285.958 88.967 C 285.706 89.116,285.500 89.297,285.500 89.369 C 285.500 89.441,285.387 89.500,285.250 89.500 C 285.112 89.500,285.000 89.559,285.000 89.631 C 285.000 89.703,284.306 90.259,283.458 90.866 C 282.610 91.473,281.729 92.133,281.500 92.333 C 281.271 92.533,280.877 92.818,280.625 92.967 C 280.373 93.116,280.167 93.297,280.167 93.369 C 280.167 93.441,280.060 93.500,279.931 93.500 C 279.801 93.500,279.669 93.575,279.639 93.667 C 279.546 93.948,279.646 89.924,279.912 82.750 C 280.727 60.743,280.771 56.403,280.192 55.417 C 279.355 53.993,277.948 52.667,277.275 52.667 C 277.160 52.667,276.995 52.599,276.908 52.517 C 276.689 52.309,274.576 52.175,273.667 52.311 M226.583 149.931 C 225.667 150.252,224.676 150.589,224.381 150.680 C 224.086 150.771,223.801 150.918,223.746 151.006 C 223.692 151.094,223.468 151.167,223.250 151.167 C 223.032 151.167,222.812 151.233,222.762 151.313 C 222.712 151.394,222.502 151.499,222.294 151.547 C 221.922 151.633,219.900 152.363,219.250 152.646 C 218.521 152.964,217.886 153.206,216.924 153.533 C 216.370 153.721,215.845 153.940,215.758 154.021 C 215.671 154.101,215.432 154.167,215.227 154.167 C 215.021 154.167,214.812 154.233,214.762 154.313 C 214.713 154.394,214.277 154.584,213.794 154.736 C 212.846 155.034,211.877 155.398,211.083 155.756 C 210.808 155.880,210.246 156.091,209.833 156.225 C 209.421 156.359,208.896 156.542,208.667 156.633 C 207.969 156.908,206.709 157.390,205.333 157.910 C 204.921 158.066,204.371 158.300,204.111 158.430 C 203.852 158.560,203.500 158.667,203.330 158.667 C 203.159 158.667,202.973 158.742,202.917 158.833 C 202.860 158.925,202.635 159.000,202.417 159.000 C 202.198 159.000,201.975 159.072,201.920 159.160 C 201.866 159.249,201.580 159.393,201.286 159.482 C 200.518 159.712,198.836 160.321,198.250 160.581 C 197.426 160.946,196.468 161.306,195.539 161.598 C 195.056 161.749,194.621 161.939,194.571 162.020 C 194.521 162.101,194.358 162.167,194.209 162.167 C 193.400 162.167,192.542 162.837,192.336 163.630 C 192.224 164.063,192.037 164.754,191.920 165.167 C 191.803 165.579,191.612 166.254,191.496 166.667 C 191.083 168.126,190.293 170.447,189.379 172.880 C 188.306 175.740,188.257 175.583,190.228 175.583 C 191.736 175.583,192.313 175.443,193.722 174.737 C 193.981 174.607,194.301 174.500,194.432 174.500 C 194.564 174.500,194.801 174.433,194.961 174.350 C 195.120 174.268,195.588 174.075,196.000 173.921 C 196.412 173.766,196.962 173.534,197.222 173.403 C 197.481 173.273,197.833 173.167,198.004 173.167 C 198.174 173.167,198.360 173.092,198.417 173.000 C 198.473 172.908,198.659 172.833,198.830 172.833 C 199.000 172.833,199.352 172.727,199.611 172.597 C 199.871 172.466,200.421 172.234,200.833 172.079 C 201.246 171.925,201.714 171.732,201.873 171.650 C 202.032 171.567,202.309 171.500,202.488 171.500 C 202.667 171.500,202.858 171.428,202.913 171.340 C 202.967 171.251,203.253 171.107,203.548 171.019 C 203.842 170.932,204.496 170.703,205.000 170.512 C 206.183 170.063,206.231 170.091,206.662 171.486 C 206.863 172.134,207.096 172.706,207.180 172.758 C 207.264 172.810,207.333 173.032,207.333 173.250 C 207.333 173.468,207.402 173.690,207.487 173.742 C 207.571 173.794,207.802 174.360,208.000 175.000 C 208.198 175.640,208.429 176.206,208.513 176.258 C 208.598 176.310,208.667 176.532,208.667 176.750 C 208.667 176.968,208.736 177.190,208.820 177.242 C 208.904 177.294,209.135 177.860,209.333 178.500 C 209.531 179.140,209.762 179.706,209.847 179.758 C 209.931 179.810,210.000 180.021,210.000 180.227 C 210.000 180.432,210.073 180.673,210.161 180.761 C 210.250 180.850,210.470 181.371,210.651 181.920 C 210.831 182.468,211.140 183.329,211.337 183.833 C 211.534 184.338,211.835 185.125,212.007 185.583 C 212.179 186.042,212.480 186.829,212.676 187.333 C 212.873 187.838,213.072 188.420,213.120 188.627 C 213.168 188.835,213.273 189.046,213.353 189.096 C 213.434 189.146,213.500 189.326,213.500 189.496 C 213.500 189.667,213.607 190.019,213.737 190.278 C 213.867 190.538,214.100 191.088,214.254 191.500 C 214.408 191.912,214.602 192.380,214.684 192.539 C 214.766 192.699,214.833 192.975,214.833 193.155 C 214.833 193.334,214.906 193.525,214.994 193.580 C 215.082 193.634,215.227 193.920,215.315 194.214 C 215.525 194.914,216.138 196.616,216.410 197.250 C 216.527 197.525,216.830 198.313,217.082 199.000 C 217.495 200.128,218.452 202.668,219.123 204.417 C 219.264 204.783,219.473 205.308,219.589 205.583 C 219.705 205.858,219.916 206.421,220.058 206.833 C 220.200 207.246,220.476 207.996,220.670 208.500 C 220.865 209.004,221.160 209.792,221.325 210.250 C 221.490 210.708,221.900 211.796,222.236 212.667 C 223.179 215.113,223.755 216.636,224.253 218.000 C 224.504 218.688,224.823 219.497,224.961 219.800 C 225.250 220.433,225.414 220.222,223.026 222.304 C 222.257 222.975,221.457 223.688,221.249 223.887 C 221.040 224.087,220.581 224.509,220.227 224.826 C 218.277 226.570,216.145 228.518,215.384 229.250 C 214.409 230.188,213.659 230.887,211.182 233.167 C 210.236 234.037,209.105 235.088,208.668 235.500 C 208.232 235.912,207.213 236.850,206.404 237.583 C 205.596 238.317,204.640 239.198,204.280 239.542 C 203.921 239.885,203.597 240.167,203.560 240.167 C 203.524 240.167,203.252 240.413,202.955 240.713 C 202.659 241.014,201.854 241.739,201.167 242.324 C 200.479 242.909,199.751 243.563,199.550 243.777 C 199.348 243.991,199.132 244.167,199.069 244.167 C 199.007 244.167,198.834 244.298,198.686 244.458 C 198.538 244.619,197.967 245.123,197.417 245.578 C 196.365 246.449,195.824 246.913,195.362 247.343 C 195.209 247.485,194.746 247.858,194.333 248.172 C 193.921 248.485,193.546 248.785,193.500 248.838 C 193.454 248.891,192.854 249.380,192.167 249.925 C 191.479 250.469,190.879 250.957,190.833 251.007 C 190.787 251.058,190.487 251.280,190.167 251.500 C 189.846 251.720,189.546 251.946,189.500 252.000 C 189.454 252.055,188.404 252.827,187.167 253.716 C 185.929 254.604,184.826 255.407,184.715 255.499 C 184.605 255.591,184.484 255.667,184.447 255.667 C 184.410 255.667,183.825 256.030,183.148 256.475 C 182.471 256.920,181.467 257.531,180.917 257.835 C 180.367 258.138,179.654 258.545,179.333 258.741 C 178.796 259.067,177.031 259.940,175.417 260.676 C 174.548 261.073,171.271 262.252,170.417 262.476 C 170.050 262.572,169.337 262.759,168.833 262.891 C 163.693 264.241,156.825 263.834,153.488 261.982 C 150.822 260.502,147.333 257.311,147.333 256.351 C 147.333 256.250,147.277 256.166,147.208 256.165 C 147.140 256.165,147.002 255.996,146.902 255.790 C 146.802 255.585,146.493 254.967,146.214 254.417 C 143.791 249.639,143.603 243.699,145.685 237.704 C 145.948 236.945,146.427 235.763,146.748 235.075 C 147.070 234.388,147.333 233.791,147.333 233.749 C 147.333 233.522,150.051 229.303,150.553 228.750 C 150.719 228.567,151.007 228.173,151.191 227.875 C 151.376 227.577,151.596 227.333,151.680 227.333 C 151.764 227.333,151.833 227.255,151.833 227.159 C 151.833 227.063,152.002 226.819,152.209 226.617 C 152.416 226.415,153.094 225.673,153.716 224.968 C 154.338 224.262,155.523 222.987,156.350 222.134 C 158.573 219.840,159.006 219.373,160.180 218.000 C 160.769 217.313,161.295 216.713,161.349 216.667 C 161.404 216.621,161.910 215.946,162.475 215.167 C 163.040 214.387,163.569 213.669,163.649 213.569 C 164.032 213.096,165.641 210.030,166.178 208.750 C 166.636 207.662,166.868 207.011,167.011 206.419 C 167.707 203.548,167.929 199.361,167.375 199.579 C 167.001 199.726,166.005 200.046,164.792 200.410 L 163.833 200.698 163.833 201.838 C 163.833 204.135,162.142 209.146,160.905 210.512 C 160.774 210.657,160.667 210.836,160.667 210.909 C 160.667 211.027,159.067 213.288,158.833 213.500 C 158.783 213.546,158.483 213.921,158.167 214.333 C 157.852 214.746,157.348 215.346,157.049 215.667 C 156.749 215.987,156.222 216.553,155.877 216.923 C 153.470 219.505,150.993 222.152,150.500 222.670 C 149.912 223.288,149.814 223.403,148.581 224.917 C 147.456 226.299,146.000 228.319,146.000 228.498 C 146.000 228.591,145.938 228.667,145.863 228.667 C 145.787 228.667,145.558 228.985,145.353 229.375 C 145.149 229.765,144.762 230.458,144.494 230.917 C 143.361 232.855,142.060 235.875,141.658 237.500 C 141.579 237.821,141.361 238.646,141.173 239.333 C 140.260 242.684,140.106 249.689,140.917 251.001 C 140.966 251.080,141.075 251.468,141.159 251.864 C 141.718 254.493,143.889 258.823,145.543 260.609 C 146.652 261.806,147.499 262.667,147.570 262.667 C 147.614 262.667,147.842 262.845,148.076 263.062 C 149.196 264.100,152.359 265.890,153.917 266.366 C 159.860 268.186,165.110 268.039,172.750 265.839 C 173.318 265.675,175.414 264.909,175.917 264.681 C 176.100 264.598,176.625 264.365,177.083 264.164 C 178.245 263.653,181.132 262.218,181.833 261.803 C 182.154 261.613,182.642 261.334,182.917 261.182 C 183.192 261.030,183.734 260.702,184.122 260.453 C 184.509 260.204,184.897 260.000,184.983 260.000 C 185.069 260.000,185.164 259.943,185.194 259.874 C 185.225 259.805,185.775 259.413,186.417 259.003 C 187.906 258.052,192.358 254.852,192.602 254.557 C 192.703 254.434,192.872 254.333,192.977 254.333 C 193.081 254.333,193.167 254.268,193.167 254.189 C 193.167 254.109,193.448 253.856,193.792 253.627 C 194.135 253.397,194.615 253.031,194.857 252.813 C 195.100 252.595,195.726 252.079,196.249 251.667 C 196.772 251.254,197.324 250.801,197.475 250.659 C 197.626 250.517,198.162 250.072,198.667 249.669 C 199.171 249.266,199.742 248.763,199.936 248.551 C 200.130 248.340,200.331 248.167,200.384 248.167 C 200.480 248.167,201.691 247.119,202.550 246.292 C 202.812 246.040,203.063 245.833,203.109 245.833 C 203.155 245.833,203.400 245.627,203.654 245.375 C 203.909 245.123,204.630 244.467,205.258 243.917 C 206.463 242.861,207.397 242.014,208.564 240.917 C 208.954 240.550,210.093 239.503,211.095 238.591 C 212.097 237.678,213.254 236.608,213.667 236.213 C 214.796 235.129,216.241 233.784,217.988 232.186 C 218.853 231.396,219.874 230.450,220.258 230.083 C 220.642 229.717,221.581 228.854,222.343 228.167 C 223.106 227.479,223.922 226.740,224.157 226.524 C 226.900 224.003,226.559 224.001,227.470 226.539 C 227.872 227.656,228.641 228.832,229.291 229.319 C 229.543 229.508,229.834 229.732,229.936 229.817 C 231.094 230.777,234.047 230.854,235.917 229.973 C 238.452 228.779,239.754 225.076,238.605 222.329 C 238.434 221.919,238.236 221.433,238.167 221.250 C 238.097 221.067,237.910 220.579,237.751 220.167 C 237.592 219.754,237.365 219.154,237.246 218.833 C 237.128 218.512,236.866 217.821,236.665 217.297 C 236.254 216.228,236.212 216.328,237.500 215.332 C 237.912 215.013,238.275 214.696,238.306 214.626 C 238.336 214.557,238.425 214.500,238.504 214.500 C 238.582 214.500,238.892 214.275,239.194 214.000 C 239.495 213.725,239.830 213.500,239.940 213.500 C 240.049 213.500,240.164 213.443,240.194 213.374 C 240.289 213.158,241.621 212.167,241.816 212.167 C 241.917 212.167,242.000 212.108,242.000 212.036 C 242.000 211.964,242.244 211.765,242.542 211.593 C 242.840 211.421,243.196 211.177,243.333 211.051 C 243.471 210.925,244.408 210.284,245.417 209.628 C 246.425 208.971,247.287 208.392,247.333 208.340 C 247.379 208.289,247.698 208.099,248.042 207.919 C 248.385 207.738,248.667 207.542,248.667 207.482 C 248.667 207.421,248.798 207.325,248.958 207.267 C 249.119 207.209,249.402 207.069,249.587 206.956 C 249.772 206.843,250.297 206.531,250.753 206.264 C 251.210 205.997,251.621 205.735,251.667 205.681 C 251.713 205.627,252.387 205.251,253.167 204.845 C 253.946 204.438,254.808 203.971,255.083 203.805 C 255.358 203.640,255.756 203.429,255.966 203.336 C 256.488 203.108,258.026 202.353,258.333 202.174 C 258.554 202.046,258.955 201.862,261.083 200.914 C 261.358 200.792,262.017 200.499,262.546 200.263 C 263.076 200.027,263.605 199.833,263.721 199.833 C 263.838 199.833,264.005 199.768,264.092 199.687 C 264.179 199.607,264.700 199.385,265.250 199.195 C 265.800 199.005,266.662 198.689,267.167 198.493 C 268.035 198.156,268.446 198.026,269.708 197.688 C 270.006 197.608,270.438 197.467,270.667 197.374 C 271.061 197.214,272.374 196.836,273.667 196.511 C 273.987 196.430,274.669 196.245,275.181 196.099 C 275.694 195.953,276.261 195.833,276.443 195.833 C 276.625 195.833,277.106 195.730,277.512 195.603 C 277.918 195.476,278.775 195.285,279.417 195.179 C 280.058 195.073,281.183 194.880,281.917 194.751 C 292.428 192.897,305.526 192.901,317.500 194.761 C 318.371 194.896,319.608 195.087,320.250 195.185 C 320.892 195.283,321.792 195.441,322.250 195.536 C 322.708 195.632,323.421 195.764,323.833 195.831 C 324.800 195.987,328.717 196.797,329.583 197.020 C 330.818 197.338,332.078 197.646,332.917 197.834 C 333.749 198.021,335.077 198.377,336.154 198.703 C 336.468 198.798,337.256 199.010,337.904 199.175 C 338.553 199.339,339.308 199.554,339.583 199.652 C 339.858 199.750,340.758 200.025,341.583 200.263 C 342.408 200.501,343.330 200.802,343.631 200.931 C 343.932 201.061,344.285 201.167,344.417 201.167 C 344.548 201.167,344.902 201.270,345.203 201.397 C 345.504 201.524,346.238 201.790,346.833 201.988 C 349.206 202.777,351.296 203.500,352.167 203.833 C 352.671 204.026,353.421 204.300,353.833 204.442 C 354.246 204.584,354.808 204.800,355.083 204.922 C 355.358 205.044,355.939 205.261,356.373 205.403 C 356.807 205.545,357.295 205.727,357.456 205.806 C 358.048 206.098,358.931 206.469,359.500 206.666 C 360.210 206.911,360.531 207.040,361.500 207.469 C 361.912 207.652,362.550 207.899,362.917 208.018 C 363.283 208.138,363.702 208.333,363.846 208.451 C 363.991 208.570,364.188 208.667,364.284 208.667 C 364.449 208.667,365.155 208.952,366.833 209.699 C 367.886 210.167,368.516 210.438,369.000 210.632 C 369.229 210.723,369.904 211.022,370.500 211.296 C 371.096 211.569,371.846 211.906,372.167 212.045 C 372.759 212.301,373.525 212.649,375.917 213.750 C 376.650 214.087,377.512 214.476,377.833 214.615 C 378.154 214.753,378.717 215.022,379.083 215.213 C 379.853 215.613,379.939 215.654,381.167 216.215 C 383.597 217.325,384.532 217.769,391.500 221.125 C 397.057 223.801,398.945 224.706,399.333 224.880 C 399.563 224.983,399.806 225.094,399.875 225.127 C 399.944 225.160,399.999 224.226,399.998 223.052 L 399.996 220.917 397.790 219.852 C 395.379 218.688,393.853 217.938,393.385 217.686 C 393.219 217.597,392.258 217.138,391.250 216.666 C 390.242 216.193,388.779 215.501,388.000 215.127 C 387.221 214.753,385.946 214.148,385.167 213.781 C 384.387 213.415,383.637 213.056,383.500 212.983 C 383.004 212.719,380.953 211.760,379.250 210.996 C 378.792 210.790,377.892 210.379,377.250 210.083 C 376.608 209.786,375.821 209.428,375.500 209.287 C 375.179 209.147,374.392 208.791,373.750 208.497 C 373.108 208.203,372.246 207.816,371.833 207.636 C 371.421 207.456,370.971 207.251,370.833 207.180 C 370.696 207.109,369.083 206.429,367.250 205.669 C 365.417 204.909,363.448 204.072,362.875 203.810 C 362.301 203.548,361.763 203.333,361.677 203.333 C 361.510 203.333,359.617 202.576,359.107 202.306 C 358.937 202.215,358.351 201.999,357.806 201.824 C 357.260 201.650,356.725 201.450,356.615 201.380 C 356.396 201.239,355.723 200.981,354.333 200.503 C 353.829 200.330,353.004 200.027,352.500 199.830 C 351.996 199.633,351.433 199.434,351.250 199.388 C 351.067 199.342,350.804 199.262,350.667 199.211 C 349.189 198.660,347.656 198.123,347.250 198.014 C 346.975 197.941,345.962 197.617,345.000 197.296 C 344.037 196.975,342.912 196.617,342.500 196.501 C 342.087 196.385,341.450 196.197,341.083 196.083 C 339.785 195.678,338.741 195.370,338.000 195.172 C 337.587 195.062,336.875 194.870,336.417 194.746 C 335.182 194.410,333.802 194.066,331.750 193.583 C 330.742 193.346,329.535 193.042,329.069 192.909 C 328.602 192.776,328.060 192.667,327.863 192.667 C 327.666 192.667,327.185 192.595,326.794 192.508 C 324.601 192.017,321.475 191.438,319.583 191.172 C 318.850 191.069,317.500 190.878,316.583 190.748 C 305.571 189.178,291.895 189.186,282.417 190.769 C 281.592 190.906,280.429 191.096,279.833 191.191 C 278.631 191.382,276.897 191.743,275.500 192.093 C 274.996 192.219,274.096 192.439,273.500 192.581 C 272.904 192.724,271.892 192.991,271.250 193.175 C 270.608 193.359,269.671 193.621,269.167 193.756 C 268.662 193.891,268.063 194.086,267.833 194.189 C 267.604 194.292,267.192 194.437,266.917 194.510 C 266.642 194.583,265.779 194.878,265.000 195.165 C 264.221 195.451,263.370 195.754,263.109 195.836 C 262.848 195.918,262.548 196.049,262.442 196.125 C 262.336 196.201,261.950 196.365,261.583 196.488 C 260.103 196.987,254.988 199.414,252.583 200.759 C 251.850 201.169,250.987 201.635,250.667 201.794 C 250.346 201.953,250.046 202.128,250.000 202.183 C 249.954 202.237,249.720 202.387,249.479 202.516 C 248.500 203.040,247.872 203.407,247.000 203.964 C 245.374 205.004,244.752 205.414,244.667 205.501 C 244.621 205.548,244.302 205.734,243.958 205.914 C 243.615 206.095,243.333 206.300,243.333 206.371 C 243.333 206.442,243.246 206.500,243.140 206.500 C 243.034 206.500,242.565 206.786,242.098 207.136 C 241.632 207.486,241.006 207.915,240.708 208.089 C 240.410 208.263,240.167 208.464,240.167 208.536 C 240.167 208.608,240.089 208.667,239.993 208.667 C 239.897 208.667,239.729 208.743,239.618 208.835 C 239.507 208.928,238.892 209.381,238.250 209.842 C 237.608 210.303,236.933 210.808,236.750 210.965 C 236.377 211.284,235.361 212.035,235.043 212.226 C 234.813 212.365,234.617 211.983,233.906 210.000 C 233.659 209.313,233.361 208.525,233.245 208.250 C 233.128 207.975,232.828 207.188,232.578 206.500 C 232.328 205.813,232.028 205.025,231.911 204.750 C 231.794 204.475,231.494 203.688,231.245 203.000 C 230.995 202.313,230.693 201.525,230.573 201.250 C 230.454 200.975,230.241 200.412,230.100 200.000 C 229.592 198.510,229.305 197.749,229.188 197.585 C 229.123 197.492,228.974 197.117,228.858 196.750 C 228.605 195.952,228.219 194.935,227.911 194.250 C 227.787 193.975,227.571 193.412,227.432 193.000 C 226.944 191.558,226.640 190.751,226.522 190.585 C 226.456 190.492,226.308 190.117,226.191 189.750 C 225.938 188.952,225.553 187.935,225.244 187.250 C 225.120 186.975,224.906 186.412,224.768 186.000 C 224.518 185.256,224.021 183.927,223.333 182.167 C 223.136 181.662,222.916 181.063,222.844 180.833 C 222.772 180.604,222.545 180.004,222.340 179.500 C 222.135 178.996,221.871 178.321,221.752 178.000 C 221.634 177.679,221.334 176.892,221.086 176.250 C 220.839 175.608,220.537 174.821,220.416 174.500 C 220.295 174.179,219.884 173.092,219.502 172.083 C 219.121 171.075,218.732 170.025,218.638 169.750 C 218.544 169.475,218.401 169.100,218.320 168.917 C 218.174 168.583,217.167 165.948,217.167 165.898 C 217.167 165.884,217.560 165.748,218.042 165.596 C 218.523 165.444,219.067 165.252,219.250 165.168 C 219.865 164.886,220.910 164.477,221.667 164.222 C 222.079 164.083,223.204 163.669,224.167 163.301 C 225.129 162.934,226.217 162.519,226.583 162.380 C 226.950 162.241,227.400 162.061,227.583 161.981 C 228.029 161.785,230.135 161.012,230.705 160.834 C 234.957 159.508,236.319 153.969,233.129 150.981 C 231.328 149.294,229.321 148.972,226.583 149.931 M74.000 154.647 C 73.157 154.776,71.668 155.469,71.545 155.790 C 71.501 155.905,71.360 156.000,71.232 156.000 C 71.104 156.000,71.000 156.061,71.000 156.135 C 71.000 156.210,70.868 156.416,70.707 156.594 C 69.998 157.375,69.354 159.127,68.841 161.667 C 68.776 161.987,68.640 162.512,68.539 162.833 C 68.438 163.154,68.282 163.717,68.191 164.083 C 67.914 165.206,67.490 166.873,67.258 167.750 C 67.137 168.208,66.950 168.958,66.842 169.417 C 66.647 170.244,66.429 171.070,65.941 172.833 C 65.802 173.338,65.604 174.125,65.501 174.583 C 65.289 175.526,64.897 177.053,64.581 178.167 C 64.463 178.579,64.282 179.292,64.177 179.750 C 64.072 180.208,63.883 180.958,63.756 181.417 C 63.542 182.195,63.199 183.519,62.806 185.083 C 62.714 185.450,62.537 186.125,62.412 186.583 C 62.117 187.669,61.742 189.148,61.419 190.500 C 61.276 191.096,61.013 192.108,60.833 192.750 C 60.654 193.392,60.391 194.404,60.248 195.000 C 59.925 196.352,59.549 197.831,59.254 198.917 C 59.130 199.375,58.952 200.050,58.860 200.417 C 58.468 201.981,58.125 203.305,57.910 204.083 C 57.784 204.542,57.595 205.292,57.490 205.750 C 57.385 206.208,57.203 206.921,57.086 207.333 C 56.758 208.490,56.372 209.997,56.170 210.917 C 55.996 211.704,55.834 212.325,55.264 214.376 C 55.130 214.857,54.933 215.625,54.825 216.083 C 54.717 216.542,54.529 217.292,54.409 217.750 C 54.179 218.618,53.759 220.271,53.475 221.417 C 53.385 221.783,53.195 222.440,53.055 222.876 C 51.437 227.893,56.818 232.388,61.552 229.974 C 62.747 229.364,64.333 227.353,64.333 226.448 C 64.333 226.326,64.437 225.894,64.564 225.488 C 64.791 224.765,65.222 223.158,65.500 222.000 C 65.746 220.976,66.184 219.267,66.332 218.750 C 66.467 218.278,66.690 217.408,67.270 215.083 C 67.407 214.533,67.623 213.708,67.751 213.250 C 67.878 212.792,68.131 211.817,68.312 211.083 C 68.724 209.424,68.945 208.833,69.156 208.833 C 69.246 208.833,69.455 208.699,69.619 208.535 C 70.019 208.135,71.115 207.333,71.262 207.333 C 71.327 207.333,71.463 207.232,71.565 207.108 C 71.667 206.985,72.987 205.994,74.500 204.908 C 77.126 203.021,78.930 201.692,79.833 200.976 C 80.063 200.795,80.456 200.522,80.708 200.370 C 80.960 200.219,81.167 200.036,81.167 199.964 C 81.167 199.892,81.273 199.833,81.403 199.833 C 81.533 199.833,81.673 199.740,81.714 199.625 C 81.800 199.388,82.044 199.917,82.309 200.917 C 82.406 201.283,82.714 202.333,82.992 203.250 C 83.270 204.167,83.582 205.217,83.687 205.583 C 83.791 205.950,83.970 206.550,84.084 206.917 C 84.197 207.283,84.422 208.033,84.582 208.583 C 84.742 209.133,84.930 209.771,85.000 210.000 C 85.070 210.229,85.258 210.867,85.418 211.417 C 85.578 211.967,85.803 212.717,85.916 213.083 C 86.030 213.450,86.218 214.088,86.333 214.500 C 86.449 214.912,86.638 215.550,86.754 215.917 C 86.870 216.283,87.096 217.033,87.256 217.583 C 87.606 218.785,87.651 218.936,88.328 221.167 C 88.620 222.129,88.940 223.217,89.038 223.583 C 89.137 223.950,89.421 224.887,89.670 225.667 C 89.919 226.446,90.217 227.458,90.333 227.917 C 90.449 228.375,90.749 229.387,91.000 230.167 C 91.251 230.946,91.551 231.958,91.667 232.417 C 91.783 232.875,92.082 233.887,92.331 234.667 C 92.580 235.446,92.905 236.477,93.053 236.959 C 93.357 237.949,93.439 238.073,94.552 239.205 C 95.723 240.396,96.567 240.723,98.505 240.738 C 100.577 240.754,101.340 240.454,102.735 239.077 C 103.398 238.423,103.505 238.254,104.066 236.975 C 104.400 236.213,104.421 234.081,104.103 233.212 C 103.977 232.866,103.781 232.246,103.667 231.833 C 103.457 231.069,103.123 229.946,102.751 228.750 C 102.637 228.383,102.450 227.746,102.335 227.333 C 102.121 226.560,101.780 225.414,101.417 224.250 C 101.303 223.883,101.116 223.246,101.002 222.833 C 100.806 222.126,100.553 221.285,100.075 219.750 C 99.961 219.383,99.776 218.746,99.664 218.333 C 99.474 217.631,99.240 216.850,98.742 215.250 C 98.628 214.883,98.443 214.246,98.331 213.833 C 97.967 212.490,97.632 211.427,97.397 210.869 C 97.270 210.568,97.167 210.178,97.167 210.002 C 97.167 209.826,97.101 209.510,97.022 209.300 C 96.942 209.089,96.746 208.467,96.587 207.917 C 96.427 207.367,96.199 206.654,96.080 206.333 C 95.960 206.012,95.774 205.375,95.665 204.917 C 95.447 203.995,95.069 202.728,94.746 201.833 C 94.631 201.512,94.447 200.912,94.337 200.500 C 93.959 199.070,93.621 197.914,93.412 197.333 C 93.297 197.012,93.121 196.450,93.022 196.083 C 92.407 193.806,92.273 193.359,92.051 192.838 C 91.815 192.287,91.822 192.246,92.194 191.951 C 92.408 191.781,92.753 191.497,92.960 191.321 C 93.167 191.144,93.394 191.000,93.464 191.000 C 93.535 191.000,93.839 190.775,94.140 190.500 C 94.441 190.225,94.758 190.000,94.844 190.000 C 94.930 190.000,95.000 189.925,95.000 189.833 C 95.000 189.742,95.078 189.667,95.174 189.667 C 95.347 189.667,95.575 189.507,96.179 188.958 C 96.355 188.798,96.569 188.667,96.653 188.667 C 96.737 188.667,96.831 188.603,96.861 188.525 C 96.892 188.447,97.217 188.184,97.583 187.940 C 98.232 187.509,99.392 186.666,99.772 186.348 C 99.876 186.261,101.938 184.747,104.355 182.983 C 109.884 178.949,111.311 177.899,111.833 177.480 C 112.063 177.296,112.456 177.022,112.708 176.870 C 112.960 176.719,113.167 176.536,113.167 176.464 C 113.167 176.392,113.279 176.333,113.417 176.333 C 113.554 176.333,113.667 176.266,113.667 176.183 C 113.667 176.101,113.917 175.885,114.223 175.705 C 115.768 174.793,115.768 174.788,114.406 173.103 C 113.805 172.359,113.223 171.637,113.114 171.500 C 112.660 170.929,110.660 168.151,109.755 166.833 C 109.219 166.054,108.759 165.389,108.733 165.356 C 108.676 165.284,99.695 171.809,98.022 173.138 C 97.714 173.383,97.320 173.651,97.147 173.734 C 96.975 173.817,96.833 173.948,96.833 174.025 C 96.833 174.103,96.721 174.167,96.583 174.167 C 96.446 174.167,96.333 174.227,96.333 174.300 C 96.333 174.373,96.035 174.617,95.671 174.841 C 95.307 175.066,95.007 175.306,95.004 175.375 C 95.002 175.444,94.920 175.500,94.821 175.500 C 94.723 175.500,94.538 175.605,94.409 175.734 C 94.199 175.944,88.607 180.061,86.955 181.221 C 86.586 181.480,86.175 181.801,86.043 181.933 C 85.910 182.066,85.584 182.287,85.318 182.425 C 85.051 182.563,84.833 182.748,84.833 182.838 C 84.833 182.927,84.721 183.000,84.583 183.000 C 84.446 183.000,84.333 183.059,84.333 183.131 C 84.333 183.203,84.111 183.393,83.839 183.553 C 83.568 183.714,83.249 183.940,83.131 184.055 C 83.013 184.171,82.543 184.521,82.087 184.834 C 81.631 185.146,81.143 185.494,81.004 185.607 C 79.128 187.122,73.217 191.322,73.419 190.997 C 73.494 190.875,73.609 190.507,73.675 190.180 C 73.741 189.852,74.037 188.683,74.333 187.583 C 74.629 186.483,74.927 185.321,74.994 185.000 C 75.062 184.679,75.209 184.079,75.322 183.667 C 75.434 183.254,75.601 182.617,75.691 182.250 C 75.782 181.883,75.938 181.321,76.039 181.000 C 76.140 180.679,76.276 180.154,76.341 179.833 C 76.516 178.972,77.513 175.087,77.923 173.667 C 78.042 173.254,78.230 172.504,78.342 172.000 C 78.453 171.496,78.637 170.746,78.752 170.333 C 79.019 169.372,79.486 167.584,79.667 166.833 C 79.744 166.512,79.935 165.762,80.092 165.167 C 80.400 163.995,80.708 162.816,80.989 161.731 C 82.054 157.618,78.450 153.966,74.000 154.647 "
      stroke="none" fill="#040404" fill-rule="evenodd"></path>
    <path id="path2"
      d="M149.042 78.282 C 149.202 78.323,149.465 78.323,149.625 78.282 C 149.785 78.240,149.654 78.205,149.333 78.205 C 149.012 78.205,148.881 78.240,149.042 78.282 "
      stroke="none" fill="#840404" fill-rule="evenodd"></path>
    <path id="path3"
      d="M146.042 78.121 C 146.385 78.157,146.948 78.157,147.292 78.121 C 147.635 78.085,147.354 78.056,146.667 78.056 C 145.979 78.056,145.698 78.085,146.042 78.121 "
      stroke="none" fill="#440404" fill-rule="evenodd"></path>
    <path id="path4"
      d="M148.042 78.115 C 148.202 78.157,148.465 78.157,148.625 78.115 C 148.785 78.073,148.654 78.039,148.333 78.039 C 148.012 78.039,147.881 78.073,148.042 78.115 "
      stroke="none" fill="#240404" fill-rule="evenodd"></path>
  </g>
</svg>